<svg xmlns="http://www.w3.org/2000/svg" viewBox="0 0 19 19" style="isolation:isolate"><defs><clipPath id="a"><path d="M0 0h19v19H0z"/></clipPath></defs><g fill="#FFF" clip-path="url(#a)"><path d="M6 9.56v6.4h2.26c2.5 0 3.54-.32 4.3-1.3.76-.96.88-1.8.8-5.6-.06-3.36-.1-3.64-.54-4.36-.76-1.24-1.6-1.54-4.42-1.54H6v6.4zm4.62-3.82c.46.38.48.46.48 3.7 0 3.14-.02 3.34-.44 3.76-.34.32-.7.44-1.4.44l-.96.02-.06-4.16-.04-4.14h.98c.66 0 1.12.12 1.44.38z"/><path d="M9.5 0a9.18 9.18 0 0 1 6.7 2.8A9.64 9.64 0 0 1 19 9.5a9.18 9.18 0 0 1-2.8 6.7A9.64 9.64 0 0 1 9.5 19a9.18 9.18 0 0 1-6.73-2.8A9.5 9.5 0 0 1 9.5 0zm0 1.03a8.26 8.26 0 0 0-6 2.48 8.5 8.5 0 0 0 0 11.98 8.5 8.5 0 0 0 11.99 0 8.5 8.5 0 0 0 0-11.98 8.5 8.5 0 0 0-6-2.48z"/></g></svg>