<svg xmlns="http://www.w3.org/2000/svg" version="1" viewBox="0 0 536 536" fill="#fff"><path d="M268 0a259 259 0 0 1 189 79 272 272 0 0 1 79 189 259 259 0 0 1-79 189 272 272 0 0 1-189 79 259 259 0 0 1-190-79A268 268 0 0 1 268 0zm0 29A233 233 0 0 0 99 99a240 240 0 0 0 0 338 240 240 0 0 0 338 0 240 240 0 0 0 0-338 240 240 0 0 0-169-70zm68 283c26-9 39-26 39-51 0-13-2-23-7-31a48 48 0 0 0-36-23 205 205 0 0 0-42 1 295 295 0 0 1-68-1h-20c-6 0-11 2-16 5-9 5-16 11-20 18s-6 18-6 31c0 25 13 42 39 51a393 393 0 0 0 31 6l24 1h27a200 200 0 0 0 55-7zm74-89c0 13-2 26-5 37a78 78 0 0 1-48 55c-13 6-31 10-52 12l13 6c5 2 9 7 13 14 2 4 3 11 4 20a369 369 0 0 1 0 51l1 13c2 4 4 7 7 9l8 6c2 1 3 2 2 4s-4 3-9 3l-9-1a33 33 0 0 1-19-12c-2-3-3-7-3-12v-50c0-5-1-10-4-12l-8-5v66c0 12 1 20 4 23l3 6 2 4c0 1 0 2-2 2-1 1-5 0-9-1-9-2-15-7-18-14s-6-15-6-23v-65h-13v65c0 8-2 15-6 23s-9 12-18 14c-5 1-8 2-9 1-2 0-2-1-2-2s0-3 2-4 2-4 3-6l3-8 2-15v-66l-8 5c-3 2-4 6-4 12v50c0 5-1 9-3 12-3 3-5 6-9 8l-10 4-9 1c-5 0-8-1-9-3s0-3 2-4l8-6c3-2 5-5 7-9l1-16-1-29-13 3c-5 0-11 0-17-2-11-2-20-5-25-10-6-5-12-13-17-24l-9-14-10-8-6-5v-4c2-3 6-4 10-4l8 2c5 2 9 6 14 13 5 6 10 12 16 16l9 7 12 4h15c5-1 10-3 16-7a29 29 0 0 1 14-20l9-4 6-3c-22-1-41-5-55-11s-26-14-34-23-14-19-17-31-5-25-5-38 2-25 6-36 10-20 18-28c-4-10-5-20-4-31s3-20 7-29c15 1 28 4 38 10 11 6 18 10 22 14 18-5 36-7 55-7h4c18 0 34 2 51 6 4-4 12-8 22-14 10-5 23-8 38-9a101 101 0 0 1 4 57c8 8 15 18 19 29s7 24 7 38zm-143-14h1-1zm78 48c0 6-1 11-4 15s-7 6-11 6c-5 0-9-2-11-6-3-4-5-9-5-15s2-11 5-15c2-4 6-6 11-6s8 2 11 6 4 9 4 15zm-119 0c0 6-2 11-5 15s-7 6-11 6-9-2-11-6c-3-4-5-9-5-15s2-11 5-15 6-6 11-6 8 2 11 6 5 9 5 15z"/></svg>
