<svg xmlns="http://www.w3.org/2000/svg" style="isolation:isolate" viewBox="0 0 19 19"><defs><clipPath id="a"><path d="M0 0h19v19H0z"/></clipPath></defs><g fill="#FFF" clip-path="url(#a)"><path d="M9.5 0a9.18 9.18 0 0 1 6.7 2.8A9.64 9.64 0 0 1 19 9.5a9.18 9.18 0 0 1-2.8 6.7A9.64 9.64 0 0 1 9.5 19a9.18 9.18 0 0 1-6.73-2.8A9.5 9.5 0 0 1 9.5 0zm0 1.03a8.26 8.26 0 0 0-6 2.48 8.5 8.5 0 0 0 0 11.98 8.5 8.5 0 0 0 11.99 0 8.5 8.5 0 0 0 0-11.98 8.5 8.5 0 0 0-6-2.48z"/><path d="M14.28 6.06l.9-.87V5h-3.14L9.8 10.57 7.25 5h-3.3v.19l1.07 1.28c.1.09.16.23.14.37v5.01a.57.57 0 0 1-.15.5l-1.2 1.44v.2H7.2v-.2L6 12.35a.59.59 0 0 1-.16-.5V7.51l2.97 6.47h.35l2.55-6.47v5.16c0 .13 0 .16-.09.25l-.91.89V14h4.45v-.19l-.88-.87a.26.26 0 0 1-.1-.25V6.31c-.02-.1.02-.2.1-.25z"/></g></svg>