<svg xmlns="http://www.w3.org/2000/svg" style="isolation:isolate" viewBox="0 0 512 512" fill="#fff"><defs><clipPath id="a"><path d="M0 0h512v512H0z"/></clipPath></defs><g clip-path="url(#a)"><path d="M256 0a256 256 0 1 0 0 512 256 256 0 0 0 0-512zm0 482A233 233 0 0 1 30 256C30 137 137 30 256 30s226 107 226 226-107 226-226 226z"/><path d="M128 230v52c57 0 102 45 102 102h52c0-85-69-154-154-154z"/><path d="M128 128v51c113 0 205 92 205 205h51c0-141-115-256-256-256zM153 333a25 25 0 1 0 0 51 25 25 0 0 0 0-51z"/></g></svg>
