<svg xmlns="http://www.w3.org/2000/svg" version="1" viewBox="0 0 612 612" fill="#fff"><path d="M437 245v-9c13-10 25-22 34-36-12 5-25 9-39 10 14-8 25-22 30-39-13 8-28 14-43 17a67 67 0 0 0-50-23c-37-1-67 31-67 70 0 6 0 11 2 17-57-4-106-33-140-77-6 10-9 22-9 36 0 25 12 47 30 60-11 0-21-4-31-9v1c0 35 24 64 55 71a64 64 0 0 1-31 1c9 29 34 50 63 50a130 130 0 0 1-100 30c30 20 66 32 104 32 124 0 192-108 192-202z"/><path d="M612 306a306 306 0 1 0-612 0 306 306 0 0 0 612 0zm-584 0a278 278 0 1 1 556 0 278 278 0 0 1-556 0z"/></svg>
